<mxfile host="app.diagrams.net" agent="Mozilla/5.0 (Windows NT 10.0; Win64; x64) AppleWebKit/537.36 (KHTML, like Gecko) Chrome/130.0.0.0 Safari/537.36" version="24.8.6">
  <diagram id="C5RBs43oDa-KdzZeNtuy" name="Class and State Machine Diagrams">
    <mxGraphModel dx="2117" dy="522" grid="1" gridSize="10" guides="1" tooltips="1" connect="1" arrows="1" fold="1" page="1" pageScale="1" pageWidth="827" pageHeight="1169" math="0" shadow="1">
      <root>
        <mxCell id="WIyWlLk6GJQsqaUBKTNV-0" />
        <mxCell id="WIyWlLk6GJQsqaUBKTNV-1" parent="WIyWlLk6GJQsqaUBKTNV-0" />
        <mxCell id="Z_uWjIVEJ-FZmdrzl7NU-0" value="&#xa;              TrafficLight               &#xa;&#xa; - redLed: int                           &#xa; - yellowLed: int                        &#xa; - greenLed: int                         &#xa; - t_red: long                           &#xa; - t_yellow: long                        &#xa; - t_green: long                         &#xa; - currentState: int                     &#xa; - previousMillis: long                  &#xa; - isYellowToGreen: bool                 &#xa;&#xa; + TrafficLight(redPin: int,             &#xa;                yellowPin: int,          &#xa;                greenPin: int,           &#xa;                redTime: long,           &#xa;                yellowTime: long,        &#xa;                greenTime: long)         &#xa; + setup(): void                         &#xa; + update(): void                        &#xa; - setLights(redState: int,              &#xa;             yellowState: int,                       greenState: int): void      &#xa;&#xa;" style="text;whiteSpace=wrap;" vertex="1" parent="WIyWlLk6GJQsqaUBKTNV-1">
          <mxGeometry x="-580" y="170" width="230" height="380" as="geometry" />
        </mxCell>
        <mxCell id="Z_uWjIVEJ-FZmdrzl7NU-3" value="" style="swimlane;fontStyle=0;childLayout=stackLayout;horizontal=1;startSize=26;fillColor=none;horizontalStack=0;resizeParent=1;resizeParentMax=0;resizeLast=0;collapsible=1;marginBottom=0;whiteSpace=wrap;html=1;" vertex="1" parent="WIyWlLk6GJQsqaUBKTNV-1">
          <mxGeometry x="-580" y="185" width="150" height="350" as="geometry">
            <mxRectangle x="-580" y="185" width="50" height="40" as="alternateBounds" />
          </mxGeometry>
        </mxCell>
        <mxCell id="Z_uWjIVEJ-FZmdrzl7NU-7" value="" style="endArrow=none;html=1;rounded=0;exitX=1.015;exitY=0.448;exitDx=0;exitDy=0;exitPerimeter=0;" edge="1" parent="Z_uWjIVEJ-FZmdrzl7NU-3">
          <mxGeometry width="50" height="50" relative="1" as="geometry">
            <mxPoint y="175" as="sourcePoint" />
            <mxPoint x="146.54999999999995" y="174.76" as="targetPoint" />
            <Array as="points" />
          </mxGeometry>
        </mxCell>
        <mxCell id="Z_uWjIVEJ-FZmdrzl7NU-8" value="" style="group" vertex="1" connectable="0" parent="WIyWlLk6GJQsqaUBKTNV-1">
          <mxGeometry x="-290" y="210" width="350" height="330" as="geometry" />
        </mxCell>
        <mxCell id="IuIPPC3XSv-TgcjxnT76-8" value="t=20s" style="text;html=1;align=center;verticalAlign=middle;resizable=0;points=[];autosize=1;strokeColor=none;fillColor=none;" parent="Z_uWjIVEJ-FZmdrzl7NU-8" vertex="1">
          <mxGeometry y="70" width="50" height="30" as="geometry" />
        </mxCell>
        <mxCell id="IuIPPC3XSv-TgcjxnT76-11" value="&lt;span style=&quot;color: rgb(0, 0, 0); font-family: Helvetica; font-size: 12px; font-style: normal; font-variant-ligatures: normal; font-variant-caps: normal; font-weight: 400; letter-spacing: normal; orphans: 2; text-align: center; text-indent: 0px; text-transform: none; widows: 2; word-spacing: 0px; -webkit-text-stroke-width: 0px; white-space: nowrap; background-color: rgb(251, 251, 251); text-decoration-thickness: initial; text-decoration-style: initial; text-decoration-color: initial; display: inline !important; float: none;&quot;&gt;t=20s&lt;/span&gt;" style="text;whiteSpace=wrap;html=1;" parent="Z_uWjIVEJ-FZmdrzl7NU-8" vertex="1">
          <mxGeometry x="290" y="210" width="60" height="40" as="geometry" />
        </mxCell>
        <mxCell id="tw4hOTy_znIjdhT4LAQi-57" style="edgeStyle=orthogonalEdgeStyle;rounded=0;orthogonalLoop=1;jettySize=auto;html=1;exitX=0.5;exitY=1;exitDx=0;exitDy=0;entryX=0.5;entryY=0;entryDx=0;entryDy=0;" parent="Z_uWjIVEJ-FZmdrzl7NU-8" edge="1">
          <mxGeometry relative="1" as="geometry">
            <mxPoint x="200" y="60" as="sourcePoint" />
            <mxPoint x="170" y="125" as="targetPoint" />
          </mxGeometry>
        </mxCell>
        <mxCell id="tw4hOTy_znIjdhT4LAQi-58" style="edgeStyle=orthogonalEdgeStyle;rounded=0;orthogonalLoop=1;jettySize=auto;html=1;exitX=0.5;exitY=1;exitDx=0;exitDy=0;entryX=0.5;entryY=0;entryDx=0;entryDy=0;" parent="Z_uWjIVEJ-FZmdrzl7NU-8" source="IuIPPC3XSv-TgcjxnT76-15" edge="1">
          <mxGeometry relative="1" as="geometry">
            <mxPoint x="170" y="205" as="sourcePoint" />
            <mxPoint x="170.00000000000023" y="270" as="targetPoint" />
            <Array as="points" />
          </mxGeometry>
        </mxCell>
        <mxCell id="IuIPPC3XSv-TgcjxnT76-4" value="" style="edgeStyle=elbowEdgeStyle;elbow=horizontal;endArrow=classic;html=1;curved=0;rounded=0;endSize=8;startSize=8;entryX=1;entryY=0.5;entryDx=0;entryDy=0;" parent="Z_uWjIVEJ-FZmdrzl7NU-8" edge="1">
          <mxGeometry width="50" height="50" relative="1" as="geometry">
            <mxPoint x="230.00000000000023" y="310" as="sourcePoint" />
            <mxPoint x="230" y="165" as="targetPoint" />
            <Array as="points">
              <mxPoint x="290" y="240" />
            </Array>
          </mxGeometry>
        </mxCell>
        <mxCell id="IuIPPC3XSv-TgcjxnT76-6" value="" style="edgeStyle=elbowEdgeStyle;elbow=horizontal;endArrow=classic;html=1;curved=0;rounded=0;endSize=8;startSize=8;exitX=0;exitY=0.667;exitDx=0;exitDy=0;exitPerimeter=0;" parent="Z_uWjIVEJ-FZmdrzl7NU-8" edge="1">
          <mxGeometry width="50" height="50" relative="1" as="geometry">
            <mxPoint x="110.00000000000023" y="165.01999999999998" as="sourcePoint" />
            <mxPoint x="120" y="20" as="targetPoint" />
            <Array as="points">
              <mxPoint x="50" y="90" />
            </Array>
          </mxGeometry>
        </mxCell>
        <mxCell id="IuIPPC3XSv-TgcjxnT76-9" value="&#xa;&lt;span style=&quot;color: rgb(0, 0, 0); font-family: Helvetica; font-size: 12px; font-style: normal; font-variant-ligatures: normal; font-variant-caps: normal; font-weight: 400; letter-spacing: normal; orphans: 2; text-align: center; text-indent: 0px; text-transform: none; widows: 2; word-spacing: 0px; -webkit-text-stroke-width: 0px; white-space: nowrap; background-color: rgb(251, 251, 251); text-decoration-thickness: initial; text-decoration-style: initial; text-decoration-color: initial; display: inline !important; float: none;&quot;&gt;t=20s&lt;/span&gt;&#xa;&#xa;" style="text;whiteSpace=wrap;html=1;" parent="Z_uWjIVEJ-FZmdrzl7NU-8" vertex="1">
          <mxGeometry x="170" y="80" width="60" height="40" as="geometry" />
        </mxCell>
        <mxCell id="IuIPPC3XSv-TgcjxnT76-10" value="&lt;span style=&quot;color: rgb(0, 0, 0); font-family: Helvetica; font-size: 12px; font-style: normal; font-variant-ligatures: normal; font-variant-caps: normal; font-weight: 400; letter-spacing: normal; orphans: 2; text-align: center; text-indent: 0px; text-transform: none; widows: 2; word-spacing: 0px; -webkit-text-stroke-width: 0px; white-space: nowrap; background-color: rgb(251, 251, 251); text-decoration-thickness: initial; text-decoration-style: initial; text-decoration-color: initial; display: inline !important; float: none;&quot;&gt;t=20s&lt;/span&gt;" style="text;whiteSpace=wrap;html=1;" parent="Z_uWjIVEJ-FZmdrzl7NU-8" vertex="1">
          <mxGeometry x="180" y="230" width="60" height="40" as="geometry" />
        </mxCell>
        <mxCell id="IuIPPC3XSv-TgcjxnT76-14" value="&lt;span style=&quot;background-color: rgb(241, 9, 9);&quot;&gt;Red Light&lt;/span&gt;" style="rounded=1;whiteSpace=wrap;html=1;fillColor=#FF0000;strokeColor=#ae4132;shadow=1;glass=0;" parent="Z_uWjIVEJ-FZmdrzl7NU-8" vertex="1">
          <mxGeometry x="120" width="120" height="60" as="geometry" />
        </mxCell>
        <mxCell id="IuIPPC3XSv-TgcjxnT76-15" value="Yellow" style="rounded=1;whiteSpace=wrap;html=1;labelBackgroundColor=#f5d400;labelBorderColor=default;textShadow=1;fillColor=#FFFF00;gradientColor=#ffa500;strokeColor=#d79b00;shadow=1;" parent="Z_uWjIVEJ-FZmdrzl7NU-8" vertex="1">
          <mxGeometry x="110" y="125" width="120" height="60" as="geometry" />
        </mxCell>
        <mxCell id="IuIPPC3XSv-TgcjxnT76-16" value="Green" style="rounded=1;whiteSpace=wrap;html=1;labelBackgroundColor=#0ff03c;labelBorderColor=default;textShadow=1;fillColor=#33FF33;glass=0;shadow=1;" parent="Z_uWjIVEJ-FZmdrzl7NU-8" vertex="1">
          <mxGeometry x="110" y="270" width="120" height="60" as="geometry" />
        </mxCell>
      </root>
    </mxGraphModel>
  </diagram>
</mxfile>
